<svg width="27" height="28" viewBox="0 0 27 28" fill="none" xmlns="http://www.w3.org/2000/svg">
<path d="M25.292 27.1791C25.682 27.5701 26.3152 27.571 26.7062 27.1809C27.0972 26.7909 27.098 26.1578 26.708 25.7667L25.292 27.1791ZM26.708 25.7667L19.3804 18.4202L17.9644 19.8326L25.292 27.1791L26.708 25.7667ZM20.6897 11.7799C20.6897 16.9581 16.5034 21.1514 11.3448 21.1514V23.1514C17.6128 23.1514 22.6897 18.0578 22.6897 11.7799H20.6897ZM11.3448 21.1514C6.18625 21.1514 2 16.9581 2 11.7799H0C0 18.0578 5.07682 23.1514 11.3448 23.1514V21.1514ZM2 11.7799C2 6.60168 6.18625 2.40833 11.3448 2.40833V0.408325C5.07682 0.408325 0 5.50198 0 11.7799H2ZM11.3448 2.40833C16.5034 2.40833 20.6897 6.60168 20.6897 11.7799H22.6897C22.6897 5.50198 17.6128 0.408325 11.3448 0.408325V2.40833Z" fill="white"/>
</svg>
