<svg width="21" height="26" viewBox="0 0 21 26" fill="none" xmlns="http://www.w3.org/2000/svg">
<path d="M16.4786 25.4729V5.41517H0V25.4729H3.8383V24.283C3.8383 22.7867 5.00866 21.5672 6.4259 21.5672H10.0524C11.4715 21.5672 12.6499 22.7867 12.6499 24.283V25.4729H16.4786ZM4.55 18.3023C4.55 18.4087 4.53091 18.5194 4.49243 18.6177C4.45396 18.7159 4.40009 18.8068 4.32898 18.8823C4.25787 18.9575 4.17199 19.0144 4.07871 19.0551C3.98575 19.0958 3.8814 19.116 3.78043 19.116H1.9624C1.86174 19.116 1.75739 19.0958 1.66412 19.0551C1.57115 19.0144 1.48527 18.9575 1.41416 18.8823C1.34274 18.8071 1.28918 18.7163 1.2507 18.6177C1.21222 18.5194 1.19283 18.409 1.19283 18.3023V16.4002C1.19283 16.2937 1.21192 16.1834 1.2507 16.0848C1.28918 15.9865 1.34305 15.8957 1.41416 15.8201C1.48527 15.745 1.57115 15.688 1.66412 15.6473C1.75739 15.6066 1.86174 15.5861 1.9624 15.5861H3.78043C3.88109 15.5861 3.98544 15.6063 4.07871 15.6473C4.17168 15.688 4.25756 15.745 4.32898 15.8201C4.40009 15.8957 4.45396 15.9861 4.49243 16.0848C4.53091 16.1831 4.55 16.2934 4.55 16.4002V18.3023ZM4.55 12.6773C4.55 12.7837 4.53091 12.8941 4.49243 12.9927C4.45396 13.091 4.40009 13.1818 4.32898 13.257C4.25787 13.3325 4.17199 13.3891 4.07871 13.4298C3.98575 13.4705 3.8814 13.491 3.78043 13.491H1.9624C1.86174 13.491 1.75739 13.4708 1.66412 13.4298C1.57115 13.3891 1.48527 13.3322 1.41416 13.257C1.34274 13.1818 1.28918 13.091 1.2507 12.9927C1.21222 12.8944 1.19283 12.7837 1.19283 12.6773V10.7651C1.19283 10.6587 1.21192 10.5584 1.2507 10.4598C1.28918 10.3615 1.34305 10.2707 1.41416 10.1952C1.48527 10.12 1.57115 10.0529 1.66412 10.0119C1.75739 9.97125 1.86174 9.95075 1.9624 9.95075H3.78043C3.88109 9.95075 3.98544 9.97093 4.07871 10.0119C4.17168 10.0526 4.25756 10.1197 4.32898 10.1952C4.40009 10.2704 4.45396 10.3612 4.49243 10.4598C4.53091 10.5581 4.55 10.6583 4.55 10.7651V12.6773ZM6.56073 10.6736C6.56073 10.5672 6.57981 10.4569 6.6186 10.3583C6.65708 10.26 6.71095 10.1691 6.78206 10.0936C6.85347 10.0184 6.93905 9.96149 7.03232 9.9208C7.12528 9.88012 7.22994 9.85994 7.3306 9.85994H8.95624C9.0569 9.85994 9.16125 9.88012 9.25453 9.9208C9.34749 9.96149 9.43337 10.0184 9.50479 10.0936C9.5759 10.1688 9.62977 10.2596 9.66825 10.3583C9.70672 10.4565 9.72612 10.5669 9.72612 10.6736V12.3824C9.72612 12.4888 9.70703 12.5891 9.66825 12.6874C9.62977 12.7857 9.5759 12.8765 9.50479 12.952C9.43368 13.0272 9.3478 13.0942 9.25453 13.1349C9.16156 13.1756 9.0569 13.1961 8.95624 13.1961H7.3306C7.22994 13.1961 7.12528 13.1759 7.03232 13.1349C6.93935 13.0942 6.85347 13.0272 6.78206 12.952C6.71095 12.8768 6.65708 12.786 6.6186 12.6874C6.58012 12.5891 6.56073 12.4888 6.56073 12.3824V10.6736ZM9.77352 18.0581C9.77352 18.1646 9.75444 18.2648 9.71565 18.3635C9.67717 18.4617 9.6233 18.5526 9.55219 18.6277C9.48109 18.7033 9.3952 18.77 9.30224 18.811C9.20897 18.8517 9.10461 18.8719 9.00395 18.8719H7.32999C7.22933 18.8719 7.12467 18.8517 7.0317 18.811C6.93874 18.7703 6.85285 18.7033 6.78144 18.6277C6.71033 18.5526 6.65646 18.4617 6.61798 18.3635C6.5795 18.2652 6.56011 18.1649 6.56011 18.0581V16.2986C6.56011 16.1922 6.5792 16.0818 6.61798 15.9832C6.65646 15.8849 6.71033 15.7941 6.78144 15.7189C6.85285 15.6437 6.93843 15.5868 7.0317 15.5461C7.12467 15.5054 7.22933 15.4849 7.32999 15.4849H9.00395C9.10461 15.4849 9.20897 15.5051 9.30224 15.5461C9.3952 15.5868 9.48109 15.6437 9.55219 15.7189C9.62361 15.7941 9.67717 15.8849 9.71565 15.9832C9.75413 16.0818 9.77352 16.1922 9.77352 16.2986V18.0581ZM11.9283 10.7651C11.9283 10.6587 11.9474 10.5584 11.9862 10.4598C12.0247 10.3615 12.0785 10.2707 12.1496 10.1952C12.2208 10.12 12.3066 10.0529 12.3996 10.0119C12.4929 9.97125 12.5972 9.95075 12.6979 9.95075H14.5159C14.6166 9.95075 14.7209 9.97093 14.8142 10.0119C14.9072 10.0526 14.993 10.1197 15.0645 10.1952C15.1356 10.2704 15.1894 10.3612 15.2279 10.4598C15.2664 10.5581 15.2855 10.6583 15.2855 10.7651V12.6773C15.2855 12.7837 15.2664 12.8941 15.2279 12.9927C15.1894 13.091 15.1356 13.1818 15.0645 13.257C14.9934 13.3325 14.9075 13.3891 14.8142 13.4298C14.7212 13.4705 14.6166 13.491 14.5159 13.491H12.6979C12.5972 13.491 12.4929 13.4708 12.3996 13.4298C12.3066 13.3891 12.2208 13.3322 12.1496 13.257C12.0782 13.1818 12.0247 13.091 11.9862 12.9927C11.9477 12.8944 11.9283 12.7837 11.9283 12.6773V10.7651ZM12.3999 19.0548C12.3069 19.0141 12.2211 18.9571 12.15 18.8819C12.0785 18.8068 12.025 18.7159 11.9865 18.6173C11.948 18.519 11.9286 18.4087 11.9286 18.3019V16.4002C11.9286 16.2937 11.9477 16.1834 11.9865 16.0848C12.025 15.9865 12.0788 15.8957 12.15 15.8201C12.2211 15.745 12.3069 15.688 12.3999 15.6473C12.4932 15.6066 12.5975 15.5861 12.6982 15.5861H14.5162C14.6169 15.5861 14.7212 15.6063 14.8145 15.6473C14.9075 15.688 14.9934 15.745 15.0648 15.8201C15.1359 15.8957 15.1897 15.9861 15.2282 16.0848C15.2667 16.1831 15.2858 16.2934 15.2858 16.4002V18.3023C15.2858 18.4087 15.2667 18.5194 15.2282 18.6177C15.1897 18.7159 15.1359 18.8068 15.0648 18.8823C14.9937 18.9575 14.9078 19.0144 14.8145 19.0551C14.7215 19.0958 14.6169 19.116 14.5162 19.116H12.6979C12.5972 19.116 12.4929 19.0955 12.3999 19.0548Z" fill="white"/>
<path d="M19.9528 0.408325H4.08148L1.02967 3.78682H16.8902L19.9528 0.408325Z" fill="white"/>
<path d="M18.0172 24.2543L21 20.952V1.60512L18.0172 4.89573V24.2543Z" fill="white"/>
<path d="M6.42435 23.191C5.84071 23.191 5.37466 23.6847 5.37466 24.2846V25.4703H11.1064V24.2846C11.1064 23.6847 10.6416 23.191 10.0536 23.191H6.42435Z" fill="white"/>
</svg>
