<svg width="25" height="26" viewBox="0 0 25 26" fill="none" xmlns="http://www.w3.org/2000/svg">
<path d="M6.93734 23.9614L5.41884 25.4729L0 20.217L3.88234 16.3806C4.66858 15.5979 5.66071 15.0519 6.74471 14.8054C7.82871 14.5588 8.96061 14.6216 10.0103 14.9867L10.8634 15.2834H16.0972C16.3186 15.2833 16.5377 15.3275 16.7415 15.4133C16.9454 15.4991 17.1299 15.6248 17.284 15.783C17.4381 15.9412 17.5587 16.1286 17.6386 16.334C17.7186 16.5395 17.7562 16.7589 17.7493 16.9791C17.7242 17.4144 17.5311 17.8232 17.2103 18.1202C16.8895 18.4171 16.4658 18.5791 16.0278 18.5725H12.888C12.7177 18.5725 12.5543 18.6399 12.4338 18.7598C12.3134 18.8797 12.2457 19.0423 12.2457 19.2119C12.2457 19.3815 12.3134 19.5441 12.4338 19.664C12.5543 19.7839 12.7177 19.8513 12.888 19.8513H16.0381C16.8065 19.855 17.5469 19.5645 18.106 19.0398C18.6652 18.5152 19.0002 17.7966 19.0417 17.0328C19.0417 17.02 19.0417 17.0072 19.0417 16.9919L21.9554 13.7258C22.2514 13.3839 22.6683 13.1687 23.1195 13.1249C23.5707 13.0811 24.0216 13.212 24.3783 13.4905C24.5549 13.636 24.7003 13.8153 24.8062 14.0177C24.912 14.2201 24.976 14.4415 24.9944 14.6689C25.0129 14.8964 24.9854 15.1252 24.9135 15.3418C24.8417 15.5585 24.727 15.7587 24.5762 15.9305L18.7591 22.5803C18.3751 23.0183 17.9012 23.3692 17.3693 23.6093C16.8373 23.8493 16.2599 23.9729 15.6758 23.9716L6.93734 23.9614ZM18.9492 9.50319C18.9492 9.18099 18.8206 8.87199 18.5918 8.64416C18.3629 8.41632 18.0525 8.28833 17.7288 8.28833H15.9302V6.498C15.9158 6.18577 15.7811 5.89109 15.554 5.67521C15.3269 5.45932 15.025 5.33886 14.711 5.33886C14.397 5.33886 14.0951 5.45932 13.8681 5.67521C13.641 5.89109 13.5063 6.18577 13.4918 6.498V8.28833H11.6933C11.5285 8.2808 11.3638 8.3066 11.2093 8.36419C11.0548 8.42178 10.9136 8.50996 10.7943 8.62339C10.675 8.73683 10.5801 8.87316 10.5152 9.02416C10.4503 9.17516 10.4168 9.33769 10.4168 9.50192C10.4168 9.66615 10.4503 9.82867 10.5152 9.97967C10.5801 10.1307 10.675 10.267 10.7943 10.3804C10.9136 10.4939 11.0548 10.582 11.2093 10.6396C11.3638 10.6972 11.5285 10.723 11.6933 10.7155H13.4918V12.5058C13.5063 12.8181 13.641 13.1127 13.8681 13.3286C14.0951 13.5445 14.397 13.665 14.711 13.665C15.025 13.665 15.3269 13.5445 15.554 13.3286C15.7811 13.1127 15.9158 12.8181 15.9302 12.5058V10.7155H17.7288C18.052 10.7155 18.362 10.5879 18.5909 10.3606C18.8197 10.1333 18.9485 9.82495 18.9492 9.50319ZM7.24824 2.77156V4.09129H5.925C5.6865 4.09129 5.45776 4.1856 5.28911 4.35347C5.12047 4.52135 5.02572 4.74904 5.02572 4.98645C5.02572 5.22386 5.12047 5.45155 5.28911 5.61943C5.45776 5.7873 5.6865 5.88162 5.925 5.88162H7.25081V7.20134C7.25081 7.43876 7.34555 7.66644 7.5142 7.83432C7.68285 8.0022 7.91159 8.09651 8.15009 8.09651C8.3886 8.09651 8.61734 8.0022 8.78598 7.83432C8.95463 7.66644 9.04938 7.43876 9.04938 7.20134V5.8765H10.3675C10.606 5.8765 10.8347 5.78219 11.0034 5.61431C11.172 5.44644 11.2668 5.21875 11.2668 4.98134C11.2668 4.74392 11.172 4.51624 11.0034 4.34836C10.8347 4.18048 10.606 4.08617 10.3675 4.08617H9.04167V2.77156C9.04167 2.53415 8.94693 2.30646 8.77828 2.13858C8.60963 1.97071 8.38089 1.87639 8.14239 1.87639C7.90388 1.87639 7.67514 1.97071 7.50649 2.13858C7.33785 2.30646 7.2431 2.53415 7.2431 2.77156H7.24824ZM18.5921 0.408325C18.3876 0.408325 18.1916 0.489164 18.047 0.633057C17.9025 0.776951 17.8213 0.972113 17.8213 1.17561V2.31119H16.6805C16.476 2.31119 16.28 2.39203 16.1354 2.53592C15.9909 2.67981 15.9096 2.87498 15.9096 3.07847C15.9096 3.28197 15.9909 3.47713 16.1354 3.62102C16.28 3.76492 16.476 3.84576 16.6805 3.84576H17.8213V4.98134C17.8213 5.18483 17.9025 5.37999 18.047 5.52389C18.1916 5.66778 18.3876 5.74862 18.5921 5.74862C18.7965 5.74862 18.9926 5.66778 19.1371 5.52389C19.2817 5.37999 19.3629 5.18483 19.3629 4.98134V3.84576H20.5037C20.6049 3.84576 20.7052 3.82591 20.7987 3.78735C20.8922 3.74879 20.9772 3.69227 21.0488 3.62102C21.1203 3.54978 21.1771 3.46519 21.2158 3.3721C21.2546 3.27901 21.2745 3.17923 21.2745 3.07847C21.2745 2.97771 21.2546 2.87794 21.2158 2.78485C21.1771 2.69175 21.1203 2.60717 21.0488 2.53592C20.9772 2.46467 20.8922 2.40815 20.7987 2.36959C20.7052 2.33104 20.6049 2.31119 20.5037 2.31119H19.3629V1.17561C19.3629 0.972113 19.2817 0.776951 19.1371 0.633057C18.9926 0.489164 18.7965 0.408325 18.5921 0.408325Z" fill="white"/>
</svg>
